<svg width="160" height="160" viewBox="0 0 160 160" fill="none" xmlns="http://www.w3.org/2000/svg">
  <rect width="160" height="160" rx="80" fill="#E4E8EF"/>
  <circle cx="80" cy="62" r="28" fill="#F4C8A7"/>
  <path d="M49 127C53 104 67 94 80 94C93 94 107 104 111 127" fill="#F4C8A7"/>
  <path d="M52 58C52 40 65 28 80 28C95 28 108 40 108 58V61H104C101 52 93 45 80 45C67 45 59 52 56 61H52V58Z" fill="#2E3338"/>
  <circle cx="70" cy="64" r="3" fill="#2E3338"/>
  <circle cx="90" cy="64" r="3" fill="#2E3338"/>
  <path d="M73 75C75 78 77 79 80 79C83 79 85 78 87 75" stroke="#8B5E3C" stroke-width="2" stroke-linecap="round"/>
  <path d="M54 127C58 110 68 101 80 101C92 101 102 110 106 127" fill="#F6F8FB"/>
</svg>
